<?xml version="1.0" standalone="no"?>
<!DOCTYPE svg PUBLIC "-//W3C//DTD SVG 20010904//EN"
 "http://www.w3.org/TR/2001/REC-SVG-20010904/DTD/svg10.dtd">
<svg version="1.0" xmlns="http://www.w3.org/2000/svg"
 width="100.000000pt" height="100.000000pt" viewBox="0 0 100.000000 100.000000"
 preserveAspectRatio="xMidYMid meet">

<g transform="translate(0.000000,100.000000) scale(0.100000,-0.100000)"
fill="#000000" stroke="none">
<path d="M373 985 c-172 -47 -313 -189 -358 -360 -30 -116 -14 -253 43 -359
41 -77 145 -177 222 -213 202 -95 416 -59 571 96 192 193 198 491 15 688 -127
136 -321 194 -493 148z m193 -416 c47 -44 32 -129 -28 -153 -67 -29 -133 13
-133 84 0 85 99 128 161 69z m-213 -139 c25 -54 68 -83 132 -88 74 -6 119 18
153 79 l27 49 128 0 c70 0 127 -3 127 -7 -1 -25 -31 -115 -53 -159 -80 -158
-286 -254 -458 -214 -164 38 -305 182 -325 333 l-7 47 129 0 129 -1 18 -39z"/>
</g>
</svg>
